<svg width="231" height="52" viewBox="0 0 231 52" fill="none" xmlns="http://www.w3.org/2000/svg">
<path d="M27.734 44.3741V50.5525H17.4835C15.5644 50.5525 14.0432 50.5291 12.9199 50.4823C11.8433 50.3887 10.486 50.1078 8.84775 49.6398C7.20954 49.1249 5.82876 48.376 4.70541 47.3931C2.97358 45.8017 1.85023 43.906 1.33537 41.7061C0.820499 39.4594 0.563066 36.8383 0.563066 33.8427V1.40605H7.16273V33.7023C7.16273 36.417 7.46697 38.5467 8.07545 40.0913C9.29241 42.9465 11.8433 44.3741 15.7283 44.3741H27.734ZM90.3902 26.1899C90.3434 23.5688 89.9456 21.088 89.1967 18.7477C88.4946 16.4074 87.4415 14.3714 86.0373 12.6395C84.6799 10.8609 83.0183 9.45671 81.0524 8.42697C79.0866 7.39724 76.8633 6.88237 74.3825 6.88237C71.9018 6.88237 69.6785 7.39724 67.7127 8.42697C65.7468 9.45671 64.0618 10.8609 62.6576 12.6395C61.3002 14.3714 60.2471 16.4074 59.4982 18.7477C58.7961 21.088 58.4217 23.5688 58.3748 26.1899C58.4217 28.8578 58.7961 31.3386 59.4982 33.6321C60.2471 35.9256 61.3002 37.9148 62.6576 39.5999C64.0618 41.2849 65.7468 42.6189 67.7127 43.6018C69.6785 44.5847 71.9018 45.0762 74.3825 45.0762C76.8633 45.0762 79.0866 44.5847 81.0524 43.6018C83.0183 42.6189 84.6799 41.2849 86.0373 39.5999C87.4415 37.9148 88.4946 35.9256 89.1967 33.6321C89.9456 31.3386 90.3434 28.8578 90.3902 26.1899ZM51.2837 26.1899C51.3305 22.305 51.9156 18.7945 53.0389 15.6585C54.1623 12.5225 55.7303 9.85456 57.743 7.65467C59.7556 5.40798 62.1661 3.69956 64.9745 2.5294C67.7829 1.31244 70.9189 0.703962 74.3825 0.703962C77.7994 0.703962 80.912 1.31244 83.7204 2.5294C86.5755 3.69956 89.0095 5.40798 91.0221 7.65467C93.0348 9.85456 94.6028 12.5225 95.7261 15.6585C96.8495 18.7945 97.4346 22.305 97.4814 26.1899C97.4346 30.0748 96.8495 33.5619 95.7261 36.6511C94.6496 39.7403 93.105 42.3614 91.0923 44.5145C89.0797 46.6676 86.6457 48.3292 83.7906 49.4994C80.9822 50.6695 77.8462 51.2546 74.3825 51.2546C70.9189 51.2546 67.7595 50.6695 64.9043 49.4994C62.0959 48.3292 59.6854 46.6676 57.6728 44.5145C55.6601 42.3614 54.0921 39.7403 52.9687 36.6511C51.8922 33.5619 51.3305 30.0748 51.2837 26.1899ZM146.861 44.3741H151.916V29.6302H144.684V23.4517H158.516V50.5525H147.703C140.168 50.5525 134.247 48.4228 129.941 44.1635C125.681 39.8573 123.528 33.7959 123.481 25.9793C123.528 18.1626 125.681 12.1247 129.941 7.8653C134.247 3.55914 140.168 1.40605 147.703 1.40605H155.777V7.58446H146.861C141.665 7.58446 137.664 9.31629 134.855 12.7799C132.094 16.1968 130.666 20.5966 130.572 25.9793C130.666 31.362 132.094 35.7852 134.855 39.2488C137.664 42.6657 141.665 44.3741 146.861 44.3741ZM223.267 26.1899C223.22 23.5688 222.822 21.088 222.073 18.7477C221.371 16.4074 220.318 14.3714 218.914 12.6395C217.556 10.8609 215.895 9.45671 213.929 8.42697C211.963 7.39724 209.74 6.88237 207.259 6.88237C204.778 6.88237 202.555 7.39724 200.589 8.42697C198.623 9.45671 196.938 10.8609 195.534 12.6395C194.177 14.3714 193.123 16.4074 192.375 18.7477C191.672 21.088 191.298 23.5688 191.251 26.1899C191.298 28.8578 191.672 31.3386 192.375 33.6321C193.123 35.9256 194.177 37.9148 195.534 39.5999C196.938 41.2849 198.623 42.6189 200.589 43.6018C202.555 44.5847 204.778 45.0762 207.259 45.0762C209.74 45.0762 211.963 44.5847 213.929 43.6018C215.895 42.6189 217.556 41.2849 218.914 39.5999C220.318 37.9148 221.371 35.9256 222.073 33.6321C222.822 31.3386 223.22 28.8578 223.267 26.1899ZM184.16 26.1899C184.207 22.305 184.792 18.7945 185.915 15.6585C187.039 12.5225 188.607 9.85456 190.619 7.65467C192.632 5.40798 195.043 3.69956 197.851 2.5294C200.659 1.31244 203.795 0.703962 207.259 0.703962C210.676 0.703962 213.788 1.31244 216.597 2.5294C219.452 3.69956 221.886 5.40798 223.899 7.65467C225.911 9.85456 227.479 12.5225 228.603 15.6585C229.726 18.7945 230.311 22.305 230.358 26.1899C230.311 30.0748 229.726 33.5619 228.603 36.6511C227.526 39.7403 225.981 42.3614 223.969 44.5145C221.956 46.6676 219.522 48.3292 216.667 49.4994C213.859 50.6695 210.723 51.2546 207.259 51.2546C203.795 51.2546 200.636 50.6695 197.781 49.4994C194.972 48.3292 192.562 46.6676 190.549 44.5145C188.536 42.3614 186.968 39.7403 185.845 36.6511C184.769 33.5619 184.207 30.0748 184.16 26.1899Z" fill="black"/>
</svg>
